<svg width="203" height="170" viewBox="0 0 203 170" fill="none" xmlns="http://www.w3.org/2000/svg">
<path d="M99.4 122C107.133 122 114.4 121.2 121.2 119.6C128 118 133.867 115.333 138.8 111.6C143.867 107.867 147.8 103.067 150.6 97.1999C153.533 91.1999 155 83.8666 155 75.1999C155 66.5333 153.533 59.2666 150.6 53.3999C147.8 47.3999 143.867 42.5333 138.8 38.8C133.867 35.0666 128 32.3999 121.2 30.7999C114.4 29.1999 107.133 28.3999 99.4 28.3999H28.2V122H99.4ZM99.4 39.6C105.4 39.6 111.067 40.1999 116.4 41.3999C121.867 42.4666 126.6 44.3999 130.6 47.1999C134.733 49.9999 138 53.6666 140.4 58.1999C142.933 62.7333 144.2 68.3999 144.2 75.1999C144.2 81.9999 143 87.7333 140.6 92.4C138.2 96.9333 134.933 100.6 130.8 103.4C126.667 106.067 121.867 108 116.4 109.2C111.067 110.267 105.4 110.8 99.4 110.8H39V39.6H99.4ZM99.4 16.1999C109.133 16.1999 118.133 17.2666 126.4 19.3999C134.667 21.3999 141.867 24.7999 148 29.5999C154.133 34.2666 158.933 40.3333 162.4 47.7999C165.867 55.2666 167.6 64.3999 167.6 75.1999C167.6 85.9999 165.867 95.1333 162.4 102.6C158.933 110.067 154.133 116.2 148 121C141.867 125.667 134.667 129.067 126.4 131.2C118.133 133.2 109.133 134.2 99.4 134.2H16V16.1999H99.4ZM99.4 145.4C111 145.4 121.6 144.133 131.2 141.6C140.933 139.067 149.267 135 156.2 129.4C163.267 123.8 168.733 116.533 172.6 107.6C176.6 98.6666 178.6 87.8666 178.6 75.1999C178.6 62.5333 176.6 51.7333 172.6 42.7999C168.733 33.8666 163.267 26.5999 156.2 20.9999C149.267 15.3999 140.933 11.3333 131.2 8.79994C121.6 6.26661 111 4.99994 99.4 4.99994H4.99995V145.4H99.4ZM-4.87193e-05 -5.10216e-05H99.4C107 -5.10216e-05 114.333 0.399948 121.4 1.19995C128.467 1.86661 135.4 3.46661 142.2 5.99994C149.133 8.53328 156 12.2666 162.8 17.1999C169.733 22.1333 176.8 28.7999 184 37.1999C190 43.1999 194.667 51.3999 198 61.7999C201.333 72.0666 203 83.2 203 95.2C203 108.667 200.933 120.133 196.8 129.6C192.667 139.067 186.867 146.733 179.4 152.6C172.067 158.6 163.267 162.933 153 165.6C142.733 168.4 131.533 169.8 119.4 169.8H20.6L-4.87193e-05 150.4V-5.10216e-05ZM63.4 105.8H99.4C104.733 105.8 109.8 105.333 114.6 104.4C119.4 103.333 123.6 101.667 127.2 99.3999C130.933 96.9999 133.867 93.8666 136 89.9999C138.133 85.9999 139.2 81.0666 139.2 75.1999C139.2 72.2666 138.867 69.3333 138.2 66.3999C132.333 64.7999 126.067 63.9999 119.4 63.9999H63.4V105.8Z" fill="#DFDFDF" style="mix-blend-mode:color-dodge"/>
</svg>
