<svg width="55" height="46" viewBox="0 0 55 46" fill="none" xmlns="http://www.w3.org/2000/svg">
<path fill-rule="evenodd" clip-rule="evenodd" d="M27.5 0C12.3063 0 0 10.5528 0 23.5818C0 34.0167 7.87188 42.8304 18.8031 45.9549C20.1781 46.1613 20.6938 45.4538 20.6938 44.8348C20.6938 44.2747 20.6594 42.4177 20.6594 40.4427C13.75 41.5334 11.9625 38.9983 11.4125 37.6719C11.1031 36.9939 9.7625 34.901 8.59375 34.3409C7.63125 33.8988 6.25625 32.8081 8.55938 32.7786C10.725 32.7492 12.2719 34.4883 12.7875 35.1958C15.2625 38.7625 19.2156 37.7603 20.7969 37.1413C21.0375 35.6085 21.7594 34.5768 22.55 33.9872C16.4313 33.3977 10.0375 31.3637 10.0375 22.3437C10.0375 19.7792 11.1031 17.6568 12.8563 16.0061C12.5813 15.4166 11.6188 12.9994 13.1313 9.75695C13.1313 9.75695 15.4344 9.13793 20.6938 12.1741C22.8938 11.6435 25.2313 11.3782 27.5688 11.3782C29.9063 11.3782 32.2438 11.6435 34.4438 12.1741C39.7031 9.10845 42.0063 9.75695 42.0063 9.75695C43.5188 12.9994 42.5563 15.4166 42.2813 16.0061C44.0344 17.6568 45.1 19.7497 45.1 22.3437C45.1 31.3932 38.6719 33.3977 32.5531 33.9872C33.55 34.7241 34.4094 36.139 34.4094 38.3498C34.4094 41.5039 34.375 44.0389 34.375 44.8348C34.375 45.4538 34.8906 46.1908 36.2656 45.9549C41.7248 44.3746 46.4688 41.3659 49.8295 37.3523C53.1903 33.3389 54.9986 28.5227 55 23.5818C55 10.5528 42.6938 0 27.5 0Z" fill="white"/>
</svg>
