<svg width="56" height="56" viewBox="0 0 56 56" fill="none" xmlns="http://www.w3.org/2000/svg">
<path d="M35 51.3332V41.9998C35.3246 39.0768 34.4865 36.1435 32.6666 33.8332C39.6666 33.8332 46.6666 29.1665 46.6666 20.9998C46.8533 18.0832 46.0366 15.2132 44.3333 12.8332C44.9866 10.1498 44.9866 7.34984 44.3333 4.6665C44.3333 4.6665 42 4.6665 37.3333 8.1665C31.1733 6.99984 24.8266 6.99984 18.6666 8.1665C14 4.6665 11.6666 4.6665 11.6666 4.6665C10.9666 7.34984 10.9666 10.1498 11.6666 12.8332C9.96766 15.2036 9.14306 18.0897 9.33329 20.9998C9.33329 29.1665 16.3333 33.8332 23.3333 33.8332C22.4233 34.9765 21.7466 36.2832 21.35 37.6832C20.9533 39.0832 20.8366 40.5532 21 41.9998M21 41.9998V51.3332M21 41.9998C10.4766 46.6665 9.33329 37.3332 4.66663 37.3332" stroke="#010101" stroke-width="2" stroke-linecap="round" stroke-linejoin="round"/>
</svg>
