<svg width="56" height="56" viewBox="0 0 56 56" fill="none" xmlns="http://www.w3.org/2000/svg">
<path d="M40.8333 15.1665H40.8566M16.3333 4.6665H39.6666C46.1099 4.6665 51.3333 9.88985 51.3333 16.3332V39.6665C51.3333 46.1098 46.1099 51.3332 39.6666 51.3332H16.3333C9.88997 51.3332 4.66663 46.1098 4.66663 39.6665V16.3332C4.66663 9.88985 9.88997 4.6665 16.3333 4.6665ZM37.3333 26.5298C37.6213 28.4717 37.2896 30.455 36.3854 32.1975C35.4812 33.9401 34.0506 35.3531 32.2971 36.2357C30.5435 37.1184 28.5563 37.4256 26.6181 37.1137C24.6799 36.8018 22.8894 35.8867 21.5013 34.4985C20.1131 33.1104 19.198 31.3199 18.8861 29.3817C18.5742 27.4435 18.8814 25.4563 19.7641 23.7027C20.6467 21.9492 22.0597 20.5186 23.8023 19.6144C25.5448 18.7102 27.5281 18.3785 29.47 18.6665C31.4508 18.9602 33.2846 19.8833 34.7006 21.2992C36.1165 22.7152 37.0396 24.549 37.3333 26.5298Z" stroke="url(#paint0_linear_79_435)" stroke-width="2" stroke-linecap="round" stroke-linejoin="round"/>
<defs>
<linearGradient id="paint0_linear_79_435" x1="28" y1="4.6665" x2="28" y2="51.3332" gradientUnits="userSpaceOnUse">
<stop stop-color="#E0900E"/>
<stop offset="1" stop-color="#EB1C3F"/>
</linearGradient>
</defs>
</svg>
