<svg width="56" height="56" viewBox="0 0 56 56" fill="none" xmlns="http://www.w3.org/2000/svg">
<path d="M37.3333 18.6665C41.0463 18.6665 44.6073 20.1415 47.2328 22.767C49.8583 25.3925 51.3333 28.9535 51.3333 32.6665V48.9998H42V32.6665C42 31.4288 41.5083 30.2418 40.6331 29.3667C39.758 28.4915 38.571 27.9998 37.3333 27.9998C36.0956 27.9998 34.9086 28.4915 34.0335 29.3667C33.1583 30.2418 32.6666 31.4288 32.6666 32.6665V48.9998H23.3333V32.6665C23.3333 28.9535 24.8083 25.3925 27.4338 22.767C30.0593 20.1415 33.6203 18.6665 37.3333 18.6665Z" stroke="#0EB4D9" stroke-width="2" stroke-linecap="round" stroke-linejoin="round"/>
<path d="M14 20.9998H4.66663V48.9998H14V20.9998Z" stroke="#0EB4D9" stroke-width="2" stroke-linecap="round" stroke-linejoin="round"/>
<path d="M9.33329 13.9998C11.9106 13.9998 14 11.9105 14 9.33317C14 6.75584 11.9106 4.6665 9.33329 4.6665C6.75596 4.6665 4.66663 6.75584 4.66663 9.33317C4.66663 11.9105 6.75596 13.9998 9.33329 13.9998Z" stroke="#0EB4D9" stroke-width="2" stroke-linecap="round" stroke-linejoin="round"/>
</svg>
