<svg width="55" height="31" viewBox="0 0 55 31" fill="none" xmlns="http://www.w3.org/2000/svg">
<path d="M48.4375 0H5.8125C2.51875 0 0 1.90937 0 4.40625V26.4375C0 28.9344 2.51875 30.8438 5.8125 30.8438H19.1812H34.875H48.4375C51.7313 30.8438 54.25 28.9344 54.25 26.4375V4.40625C54.25 1.90937 51.7313 0 48.4375 0ZM45.1437 22.0312H34.6812C34.875 21.5906 34.875 21.0031 34.875 20.5625C34.875 17.3312 31.3875 14.6875 27.125 14.6875C22.8625 14.6875 19.375 17.3312 19.375 20.5625C19.375 21.0031 19.5688 21.5906 19.5688 22.0312H9.10625C9.10625 21.5906 8.9125 21.0031 8.9125 20.5625C8.9125 19.5344 9.10625 18.5063 9.49375 17.3313C9.6875 16.5969 10.6562 16.1563 11.625 16.3031C12.7875 16.45 13.95 16.0094 14.725 15.1281C15.3063 14.3938 15.3063 13.3656 14.5312 12.6313C13.95 12.0438 13.95 11.1625 14.725 10.7219C16.8563 9.25313 19.375 8.07813 22.0875 7.49063C22.2812 7.49063 22.475 7.49063 22.6687 7.49063C23.4437 7.49063 24.2188 7.78437 24.4125 8.37187C24.8 9.25312 25.9625 9.84062 27.125 9.84062C28.2875 9.84062 29.45 9.25312 29.8375 8.37187C30.225 7.6375 31.1938 7.34375 32.1625 7.49063C34.875 8.07813 37.3937 9.25313 39.525 10.7219C40.3 11.3094 40.3 12.0438 39.7188 12.6313C38.9437 13.3656 38.9437 14.3938 39.525 15.1281C40.1062 15.8625 41.2688 16.45 42.625 16.3031C43.5938 16.1563 44.5625 16.7437 44.7563 17.4781C45.1438 18.5062 45.3375 19.6813 45.3375 20.7094C45.1437 21.0031 45.1437 21.5906 45.1437 22.0312Z" fill="white"/>
</svg>
