<svg width="66" height="47" viewBox="0 0 66 47" fill="none" xmlns="http://www.w3.org/2000/svg">
<g clip-path="url(#clip0_117_10)">
<path fill-rule="evenodd" clip-rule="evenodd" d="M42.0552 43.3763C40.4646 43.3763 39.1776 42.4552 39.1776 41.3166C39.1776 40.178 40.4646 39.2592 42.0552 39.2592C43.6458 39.2592 44.9328 40.178 44.9328 41.3166C44.9328 42.4552 43.6458 43.3763 42.0552 43.3763ZM33.2376 47C49.995 47 48.9489 41.7986 48.9489 41.7986L48.9291 36.4101H32.9406V34.7922H55.2783C55.2783 34.7922 66 35.6639 66 23.562C66 11.46 56.6445 11.8865 56.6445 11.8865H51.0575V17.5045C51.0575 17.5045 51.3579 24.2011 41.8506 24.2011H25.9908C25.9908 24.2011 17.0808 24.1004 17.0808 30.3676V40.728C17.0808 40.728 15.7278 47 33.2376 47ZM23.9481 3.62368C25.5387 3.62368 26.8224 4.54475 26.8224 5.68337C26.8224 6.822 25.5387 7.74077 23.9481 7.74077C22.3575 7.74077 21.0705 6.822 21.0705 5.68337C21.0705 4.54475 22.3575 3.62368 23.9481 3.62368ZM32.7624 0C16.0083 0 17.0544 5.20144 17.0544 5.20144L17.0742 10.5899H33.0627V12.2078H10.7217C10.7217 12.2078 0 11.3361 0 23.438C0 35.54 9.3588 35.1135 9.3588 35.1135H14.9424V29.4955C14.9424 29.4955 14.6421 22.7989 24.1527 22.7989H40.0092C40.0092 22.7989 48.9192 22.8996 48.9192 16.6324V6.27202C48.9192 6.27202 50.2722 0 32.7624 0Z" fill="white"/>
</g>
<defs>
<clipPath id="clip0_117_10">
<rect width="66" height="47" fill="white"/>
</clipPath>
</defs>
</svg>
