<svg width="1382" height="296" viewBox="0 0 1382 296" fill="none" xmlns="http://www.w3.org/2000/svg">
<path d="M154.448 0C94.6685 0 42.6483 35.09 15.1778 86.9605C36.6452 86.9129 78.4549 86.8852 78.4549 86.8852H78.4645V86.8682C127.883 86.8682 129.719 87.1041 139.374 87.5351L145.351 87.771C166.173 88.5126 191.765 90.902 211.901 107.187C222.832 116.02 238.614 135.516 248.022 149.404C256.719 162.251 259.221 177.018 253.308 191.167C247.865 204.171 236.154 211.927 221.971 211.927H0C0 211.927 1.3213 217.915 3.30281 224.524H306.301C311.68 207.235 314.431 189.136 314.447 170.917C314.452 76.5312 242.815 0 154.448 0ZM475.243 242.19H512.948V174.62H540.459L574.246 242.19H615.865L577.987 168.105C598.275 158.798 609.508 139.905 609.508 113.845C609.508 75.9643 586.088 51.5798 545.599 51.5798H475.243V242.19ZM512.948 142.231V84.5269H538.371C560.138 84.5269 570.672 94.8581 570.672 113.845C570.672 132.738 560.138 142.231 538.543 142.231H512.948ZM673.594 244.889C693.359 244.889 706.154 235.676 712.688 222.366H713.733V242.19H748.908V145.768C748.908 111.704 721.915 97.3707 692.138 97.3707C660.095 97.3707 639.026 113.751 633.886 139.811L668.195 142.79C670.72 133.296 678.643 126.316 691.965 126.316C704.588 126.316 711.816 133.111 711.816 144.838V145.396C711.816 154.61 702.672 155.82 679.424 158.24C652.957 160.846 629.187 170.339 629.187 202.263C629.187 230.557 648.08 244.889 673.594 244.889ZM684.214 217.526C672.808 217.526 664.622 211.849 664.622 200.96C664.622 189.791 673.244 184.3 686.303 182.345C694.403 181.136 707.635 179.088 712.075 175.923V191.094C712.075 206.079 700.497 217.526 684.214 217.526ZM777.687 242.19H814.779V99.2326H777.687V242.19ZM796.317 80.8042C807.378 80.8042 816.432 71.7762 816.432 60.7005C816.432 49.7184 807.378 40.6904 796.317 40.6904C785.347 40.6904 776.293 49.7184 776.293 60.7005C776.293 71.7762 785.347 80.8042 796.317 80.8042ZM881.584 51.5798H844.492V242.19H881.584V51.5798ZM937.679 242.19H976.859L999.848 152.283H1001.5L1024.49 242.19H1063.76L1100.06 99.2326H1062.63L1042.25 194.724H1041.12L1019.18 99.2326H982.345L960.749 195.282H959.533L938.809 99.2326H901.281L937.679 242.19ZM1157.99 244.889C1177.75 244.889 1190.55 235.676 1197.08 222.366H1198.13V242.19H1233.31V145.768C1233.31 111.704 1206.31 97.3707 1176.54 97.3707C1144.49 97.3707 1123.42 113.751 1118.29 139.811L1152.59 142.79C1155.11 133.296 1163.04 126.316 1176.36 126.316C1188.99 126.316 1196.22 133.111 1196.22 144.838V145.396C1196.22 154.61 1187.07 155.82 1163.82 158.24C1137.35 160.846 1113.58 170.339 1113.58 202.263C1113.58 230.557 1132.48 244.889 1157.99 244.889ZM1168.61 217.526C1157.21 217.526 1149.02 211.849 1149.02 200.96C1149.02 189.791 1157.64 184.3 1170.7 182.345C1178.8 181.136 1192.03 179.088 1196.47 175.923V191.094C1196.47 206.079 1184.9 217.526 1168.61 217.526ZM1280.19 295.8C1307.8 295.8 1322.42 280.722 1330 257.64L1381.98 99.4185L1342.71 99.2326L1314.76 204.217H1313.37L1285.68 99.2326H1246.67L1294.65 246.286L1292.47 252.335C1287.59 265.738 1278.28 266.389 1265.22 262.108L1256.86 291.705C1262.17 294.125 1270.79 295.8 1280.19 295.8Z" fill="black"/>
</svg>
