<svg width="76" height="28" viewBox="0 0 76 28" fill="none" xmlns="http://www.w3.org/2000/svg">
<path d="M8.38302 0C5.13835 0 2.31484 3.24776 0.82381 8.04865C1.989 8.04425 4.25832 8.04169 4.25832 8.04169H4.25884V8.04012C6.94113 8.04012 7.04082 8.06195 7.56483 8.10184L7.88925 8.12367C9.0194 8.19231 10.4085 8.41346 11.5014 9.92077C12.0947 10.7383 12.9513 12.5427 13.4619 13.8282C13.934 15.0172 14.0698 16.384 13.7489 17.6936C13.4534 18.8971 12.8178 19.615 12.048 19.615H0C0 19.615 0.0717168 20.1692 0.179268 20.7809H16.6252C16.9172 19.1807 17.0664 17.5056 17.0673 15.8192C17.0676 7.08337 13.1794 0 8.38302 0ZM25.7949 22.416H27.8414V16.162H29.3347L31.1685 22.416H33.4275L31.3716 15.5591C32.4727 14.6976 33.0824 12.9489 33.0824 10.5369C33.0824 7.0309 31.8112 4.77398 29.6136 4.77398H25.7949V22.416ZM27.8414 13.1643V7.82341H29.2213C30.4028 7.82341 30.9746 8.77962 30.9746 10.5369C30.9746 12.2856 30.4028 13.1643 29.2307 13.1643H27.8414ZM36.5608 22.6658C37.6336 22.6658 38.3281 21.813 38.6828 20.5812H38.7395V22.416H40.6487V13.4916C40.6487 10.3388 39.1836 9.01218 37.5674 9.01218C35.8281 9.01218 34.6846 10.5283 34.4056 12.9403L36.2678 13.216C36.4048 12.3373 36.8349 11.6912 37.558 11.6912C38.2431 11.6912 38.6355 12.3201 38.6355 13.4055V13.4572C38.6355 14.31 38.1391 14.4219 36.8773 14.6459C35.4407 14.8872 34.1506 15.7658 34.1506 18.7205C34.1506 21.3392 35.176 22.6658 36.5608 22.6658ZM37.1373 20.1332C36.5182 20.1332 36.0739 19.6078 36.0739 18.5999C36.0739 17.5662 36.5419 17.0579 37.2507 16.877C37.6903 16.7651 38.4085 16.5755 38.6495 16.2827V17.6868C38.6495 19.0737 38.0211 20.1332 37.1373 20.1332ZM42.2107 22.416H44.224V9.1845H42.2107V22.416ZM43.2219 7.47886C43.8223 7.47886 44.3137 6.64327 44.3137 5.61815C44.3137 4.60171 43.8223 3.76612 43.2219 3.76612C42.6265 3.76612 42.1351 4.60171 42.1351 5.61815C42.1351 6.64327 42.6265 7.47886 43.2219 7.47886ZM47.85 4.77398H45.8368V22.416H47.85V4.77398ZM50.8947 22.416H53.0213L54.2691 14.0946H54.3588L55.6063 22.416H57.7378L59.7085 9.1845H57.6765L56.5704 18.0227H56.509L55.3182 9.1845H53.319L52.1469 18.0744H52.0808L50.956 9.1845H48.9191L50.8947 22.416ZM62.8524 22.6658C63.9252 22.6658 64.62 21.813 64.9744 20.5812H65.0311V22.416H66.9406V13.4916C66.9406 10.3388 65.4754 9.01218 63.8592 9.01218C62.12 9.01218 60.9762 10.5283 60.6975 12.9403L62.5594 13.216C62.6964 12.3373 63.1265 11.6912 63.8496 11.6912C64.535 11.6912 64.9273 12.3201 64.9273 13.4055V13.4572C64.9273 14.31 64.431 14.4219 63.1691 14.6459C61.7323 14.8872 60.4422 15.7658 60.4422 18.7205C60.4422 21.3392 61.4679 22.6658 62.8524 22.6658ZM63.4291 20.1332C62.8101 20.1332 62.3657 19.6078 62.3657 18.5999C62.3657 17.5662 62.8337 17.0579 63.5425 16.877C63.9819 16.7651 64.7003 16.5755 64.9414 16.2827V17.6868C64.9414 19.0737 64.3129 20.1332 63.4291 20.1332ZM69.4854 27.3779C70.9836 27.3779 71.7774 25.9823 72.1887 23.846L75.0101 9.20171L72.8785 9.1845L71.3616 18.9014H71.286L69.7831 9.1845H67.6659L70.2699 22.7951L70.1518 23.355C69.8871 24.5954 69.3814 24.6557 68.6726 24.2595L68.2189 26.9988C68.507 27.2228 68.975 27.3779 69.4854 27.3779Z" fill="black"/>
</svg>
