<svg width="62" height="63" viewBox="0 0 62 63" fill="none" xmlns="http://www.w3.org/2000/svg">
<path fill-rule="evenodd" clip-rule="evenodd" d="M40.2442 54.7887C41.6516 52.6108 43.0621 49.8107 44.0758 46.2173C46.4163 47.1195 48.0221 48.196 49.0079 49.0454C46.4825 51.5628 43.4575 53.5186 40.1295 54.7856H40.2442V54.7887ZM12.9642 49.0174C14.0058 48.168 15.5837 47.1195 17.9242 46.1861C18.9658 49.8076 20.3205 52.6077 21.7558 54.7856C18.477 53.4912 15.5022 51.5269 13.02 49.0174H12.9642ZM45.9358 28.2842C45.849 25.7641 45.5948 23.2471 45.1763 20.7612C48.2763 19.6287 50.53 18.2722 52.1079 17.0277C54.3082 20.4081 55.6708 24.2676 56.0821 28.2842H45.9358ZM18.1195 15.217C16.4791 14.6104 14.9332 13.7723 13.5284 12.728C15.9043 10.4476 18.6984 8.65145 21.7558 7.43894C20.4321 9.41768 19.1363 11.9627 18.0916 15.217H18.1226H18.1195ZM40.2442 7.43894C43.3036 8.64754 46.0984 10.4442 48.4716 12.728C47.0651 13.7697 45.5196 14.6076 43.8805 15.217C43.0403 12.4601 41.8061 9.84013 40.2163 7.43894H40.2442ZM39.68 22.1457C39.959 24.0124 40.2442 26.0223 40.3 28.2842H21.7C21.7837 26.0223 21.979 23.9844 22.2642 22.1457C28.0147 23.1849 33.9016 23.1849 39.6521 22.1457H39.68ZM31 17.2517C28.179 17.2517 25.699 17.0277 23.591 16.6886C25.8416 9.7288 29.3384 6.9287 31 5.93933C32.6058 6.9287 36.1305 9.7568 38.3842 16.6886C35.9416 17.0725 33.4724 17.2608 31 17.2517ZM9.8642 17.0277C11.9715 18.6357 14.3208 19.896 16.8237 20.7612C16.4053 23.2493 16.1516 25.7624 16.0642 28.2842H5.8032C6.24829 24.2575 7.65059 20.3971 9.8921 17.0277H9.8642ZM5.8342 33.9404H16.0642C16.1758 36.3733 16.3432 38.6072 16.6842 40.6451C14.0878 41.5401 11.6651 42.879 9.5232 44.6025C7.4962 41.3763 6.22433 37.7309 5.8032 33.9404H5.8342ZM31 38.4672C27.621 38.4672 24.7163 38.7472 22.1805 39.2014C21.9327 37.458 21.7724 35.7031 21.7 33.9435H40.3C40.2163 35.8351 40.0737 37.6147 39.8505 39.2014C36.9304 38.6716 33.9674 38.4164 31 38.4392V38.4672ZM31 56.2852C29.3105 55.2678 25.5905 52.2406 23.3337 44.6897C25.8676 44.2752 28.433 44.0858 31 44.1234C33.9605 44.1234 36.4963 44.3194 38.6942 44.6897C36.4405 52.3246 32.7205 55.2678 31.0279 56.2852H31ZM52.4737 44.5745C50.3344 42.8488 47.9124 41.5097 45.3158 40.6171C45.6555 38.406 45.8626 36.1764 45.9358 33.9404H56.1968C55.7716 37.7212 54.4967 41.3566 52.4737 44.5745ZM31 0C13.8787 0 0 13.929 0 31.1123C0 48.2956 13.8787 62.2245 31 62.2245C48.1213 62.2245 62 48.2956 62 31.1123C62 13.929 48.1213 0 31 0Z" fill="white"/>
</svg>
