<svg width="62" height="57" viewBox="0 0 62 57" fill="none" xmlns="http://www.w3.org/2000/svg">
<path d="M61.0106 0H0.989362C0.442838 0 0 0.444442 0 0.992945V55.2739C0 55.8224 0.442838 56.2669 0.989362 56.2669H61.0106C61.5572 56.2669 62 55.8224 62 55.2739V0.992945C62 0.444442 61.5572 0 61.0106 0ZM60.0213 54.281H1.97872V1.98589H38.5851V7.94356H4.94681C4.40029 7.94356 3.95745 8.388 3.95745 8.9365C3.95745 9.485 4.40029 9.92945 4.94681 9.92945H57.0532C57.5997 9.92945 58.0426 9.485 58.0426 8.9365C58.0426 8.388 57.5997 7.94356 57.0532 7.94356H40.5638V1.98589H60.0213V54.281Z" fill="white"/>
<path d="M50.3255 5.95851C50.872 5.95851 51.3149 5.51374 51.3149 4.96509C51.3149 4.41645 50.872 3.97168 50.3255 3.97168C49.7791 3.97168 49.3362 4.41645 49.3362 4.96509C49.3362 5.51374 49.7791 5.95851 50.3255 5.95851Z" fill="white"/>
<path d="M44.9171 5.95851C45.4635 5.95851 45.9065 5.51374 45.9065 4.96509C45.9065 4.41645 45.4635 3.97168 44.9171 3.97168C44.3707 3.97168 43.9277 4.41645 43.9277 4.96509C43.9277 5.51374 44.3707 5.95851 44.9171 5.95851Z" fill="white"/>
<path d="M55.734 5.95851C56.2804 5.95851 56.7234 5.51374 56.7234 4.96509C56.7234 4.41645 56.2804 3.97168 55.734 3.97168C55.1876 3.97168 54.7446 4.41645 54.7446 4.96509C54.7446 5.51374 55.1876 5.95851 55.734 5.95851Z" fill="white"/>
<path d="M30.9999 24.3833C26.9572 24.3833 23.6685 27.6841 23.6685 31.7413C23.6685 35.7985 26.9572 39.0993 30.9999 39.0993C32.1629 39.0993 33.3232 38.8169 34.3553 38.2828C34.841 38.0315 35.0316 37.4326 34.7812 36.9451C34.5307 36.4576 33.9341 36.2667 33.4484 36.5176C32.6847 36.9128 31.861 37.1132 30.9999 37.1132C28.0484 37.1132 25.6472 34.7033 25.6472 31.7412C25.6472 28.779 28.0484 26.3691 30.9999 26.3691C33.9514 26.3691 36.3526 28.779 36.3526 31.7412C36.3526 32.6054 36.1529 33.4321 35.7592 34.1984C35.5089 34.6857 35.6995 35.2845 36.1852 35.5361C36.6707 35.7869 37.2673 35.5963 37.5181 35.1086C38.0502 34.0731 38.3315 32.9087 38.3315 31.7412C38.3313 27.684 35.0426 24.3833 30.9999 24.3833Z" fill="white"/>
<path d="M47.2371 28.1007H43.0761C42.8319 27.2865 42.5059 26.4994 42.1016 25.7485L45.0465 22.7931C45.232 22.6068 45.3362 22.3544 45.3362 22.0909C45.3362 21.8274 45.232 21.5751 45.0465 21.3887L41.3154 17.6441C40.9289 17.2564 40.3026 17.2564 39.9162 17.6441L36.9714 20.5996C36.2232 20.194 35.4391 19.8667 34.6277 19.6216V15.4456C34.6277 14.8971 34.1849 14.4526 33.6384 14.4526H28.3618C27.8152 14.4526 27.3724 14.8971 27.3724 15.4456V19.6216C26.5611 19.8667 25.7769 20.1938 25.0287 20.5996L22.0839 17.6441C21.6974 17.2564 21.0711 17.2564 20.6847 17.6441L16.9536 21.3887C16.7681 21.575 16.6639 21.8274 16.6639 22.0909C16.6639 22.3544 16.7681 22.6067 16.9536 22.7931L19.8985 25.7485C19.4943 26.4994 19.1682 27.2864 18.924 28.1007H14.763C14.2165 28.1007 13.7737 28.5452 13.7737 29.0937V34.3894C13.7737 34.9379 14.2165 35.3823 14.763 35.3823H18.9242C19.1683 36.1968 19.4942 36.9837 19.8985 37.7345L16.9538 40.6898C16.7682 40.8761 16.6639 41.1286 16.6639 41.392C16.6639 41.6555 16.7681 41.9078 16.9536 42.0942L20.6847 45.8388C21.0711 46.2263 21.6975 46.2266 22.0838 45.8388L25.0287 42.8834C25.7769 43.2891 26.561 43.6163 27.3724 43.8614V48.0373C27.3724 48.5858 27.8152 49.0303 28.3618 49.0303H33.6384C34.1849 49.0303 34.6277 48.5858 34.6277 48.0373V43.8614C35.439 43.6163 36.2232 43.2892 36.9714 42.8834L39.9163 45.8388C40.3026 46.2265 40.929 46.2265 41.3154 45.8388L45.0465 42.0942C45.232 41.908 45.3362 41.6555 45.3362 41.392C45.3362 41.1286 45.232 40.8762 45.0464 40.6898L42.1016 37.7345C42.5058 36.9836 42.8318 36.1968 43.0759 35.3823H47.2371C47.7836 35.3823 48.2264 34.9379 48.2264 34.3894V29.0937C48.2264 28.5452 47.7835 28.1007 47.2371 28.1007ZM46.2477 33.3964H42.3164C41.8565 33.3964 41.4572 33.7144 41.3527 34.164C41.0896 35.2977 40.6426 36.3766 40.0245 37.371C39.7807 37.763 39.8387 38.2719 40.1644 38.5987L42.9478 41.392L40.6159 43.7325L37.8323 40.939C37.5068 40.6124 36.9999 40.5542 36.6092 40.7986C35.6184 41.4192 34.5433 41.8676 33.4138 42.1317C32.9658 42.2365 32.649 42.6372 32.649 43.0988V47.0443H29.3511V43.0988C29.3511 42.6373 29.0343 42.2365 28.5863 42.1317C27.4568 41.8676 26.3817 41.419 25.3909 40.7986C25.0002 40.5541 24.493 40.6125 24.1678 40.939L21.3842 43.7325L19.0523 41.392L21.8357 38.5987C22.1614 38.2718 22.2193 37.7629 21.9755 37.3709C21.3575 36.3769 20.9107 35.298 20.6474 34.164C20.5429 33.7144 20.1437 33.3964 19.6837 33.3964H15.7524V30.0866H19.6837C20.1436 30.0866 20.5429 29.7686 20.6474 29.319C20.9105 28.1855 21.3575 27.1065 21.9756 26.1121C22.2194 25.72 22.1614 25.2111 21.8358 24.8844L19.0523 22.0909L21.3842 19.7505L24.1677 22.5441C24.4932 22.8708 25.0003 22.9291 25.3909 22.6844C26.3817 22.0639 27.4568 21.6155 28.5863 21.3514C29.0343 21.2465 29.3511 20.8459 29.3511 20.3842V16.4387H32.649V20.3842C32.649 20.8457 32.9658 21.2465 33.4138 21.3514C34.5433 21.6155 35.6184 22.064 36.6092 22.6844C36.9999 22.9291 37.5072 22.8704 37.8325 22.5441L40.6159 19.7505L42.9478 22.0909L40.1643 24.8844C39.8387 25.2113 39.7808 25.7202 40.0245 26.1121C40.6428 27.1065 41.0896 28.1855 41.3527 29.319C41.4572 29.7686 41.8564 30.0866 42.3164 30.0866H46.2477V33.3964Z" fill="white"/>
</svg>
