<svg width="62" height="47" viewBox="0 0 62 47" fill="none" xmlns="http://www.w3.org/2000/svg">
<path d="M60.6861 36.324L46.5061 25.5746C43.7088 23.4541 39.5311 23.041 36.1646 24.2986L23.2561 14.5131V8.8125L7.75606 0L0.0060546 5.875L11.6311 17.625H19.151L32.0596 27.4105C30.4127 29.9625 30.9455 33.1295 33.7428 35.25L47.9229 45.9994C49.6908 47.3396 52.5486 47.3396 54.3045 45.9994L60.6861 41.1617C62.442 39.8215 62.442 37.6551 60.6861 36.324ZM40.1729 20.6543C43.5998 20.6543 46.8209 21.6641 49.2428 23.5L51.592 25.2809C53.5053 24.6475 55.3217 23.7662 56.8959 22.5729C61.3885 19.1672 62.9143 14.3754 61.4854 10.0242C61.2189 9.19805 59.8506 8.91348 59.0514 9.51934L50.042 16.349L41.8197 15.3117L40.4514 9.07871L49.4607 2.24902C50.26 1.64316 49.8725 0.605859 48.7705 0.394727C43.0307 -0.679297 36.7096 0.477344 32.2291 3.87383C28.7779 6.49004 27.1553 9.9416 27.24 13.384L37.1818 20.9205C38.1627 20.7461 39.1799 20.6543 40.1729 20.6543ZM27.5912 28.1816L20.7252 22.9768L2.27051 36.9758C-0.756836 39.2707 -0.756836 42.9885 2.27051 45.2834C5.29785 47.5783 10.2021 47.5783 13.2295 45.2834L28.1967 33.9373C27.2764 32.1105 26.9979 30.1186 27.5912 28.1816ZM7.75606 43.3281C6.15762 43.3281 4.8498 42.3367 4.8498 41.125C4.8498 39.9041 6.14551 38.9219 7.75606 38.9219C9.3666 38.9219 10.6623 39.9041 10.6623 41.125C10.6623 42.3367 9.3666 43.3281 7.75606 43.3281Z" fill="white"/>
</svg>
