<svg width="258" height="170" viewBox="0 0 258 170" fill="none" xmlns="http://www.w3.org/2000/svg">
<path d="M115.2 134.2C101.067 114.333 87 94.6666 73 75.1999C59 55.7333 44.9333 36.0666 30.8 16.1999H46.8L120.4 119.4C132.533 102.2 144.533 85.0666 156.4 67.9999C168.4 50.7999 180.4 33.5333 192.4 16.1999H207.4L124.8 134.2H115.2ZM186.4 4.99994C175.333 20.9999 164.333 36.9333 153.4 52.7999C142.467 68.6666 131.333 84.5333 120 100.4L52.2 4.99994H9.79998L109.8 145.4H130.8L228.8 4.99994H186.4ZM257.2 20.5999L153.2 169.8H127.4L107.2 150.4L-2.48253e-05 -5.10216e-05H58.8L74.6 20.5999L122.4 88.3999C126.533 82.6666 130.667 76.7999 134.8 70.7999C139.067 64.6666 143.6 58.1333 148.4 51.1999C153.333 44.1333 158.667 36.4666 164.4 28.1999C170.133 19.7999 176.6 10.4 183.8 -5.10216e-05H238.2L257.2 20.5999Z" fill="black"/>
</svg>
