<svg width="56" height="56" viewBox="0 0 56 56" fill="none" xmlns="http://www.w3.org/2000/svg">
<path d="M28 6.125C24.1703 6.12599 20.4079 7.13213 17.0889 9.04284C13.77 10.9536 11.0106 13.7019 9.08662 17.0133C7.16266 20.3246 6.1415 24.0829 6.1252 27.9126C6.1089 31.7422 7.09804 35.5091 8.99375 38.8367L7.02404 45.7309C6.89545 46.181 6.88958 46.6573 7.00702 47.1105C7.12446 47.5636 7.36094 47.9771 7.69196 48.3081C8.02298 48.6391 8.43649 48.8756 8.88964 48.993C9.34279 49.1104 9.81909 49.1045 10.2692 48.9759L17.1634 47.0063C20.0741 48.6657 23.3271 49.6344 26.6714 49.8377C30.0157 50.0409 33.3621 49.4733 36.4523 48.1786C39.5425 46.8838 42.294 44.8966 44.4947 42.3701C46.6953 39.8436 48.2862 36.8454 49.1447 33.6068C50.0032 30.3681 50.1063 26.9756 49.4461 23.6908C48.7859 20.406 47.38 17.3167 45.3368 14.6612C43.2937 12.0058 40.6679 9.85509 37.6621 8.37507C34.6562 6.89504 31.3505 6.12523 28 6.125ZM28 48.125C24.3855 48.1275 20.8373 47.1551 17.7291 45.3103C17.6266 45.2493 17.5128 45.2099 17.3945 45.1945C17.2763 45.1792 17.1561 45.1882 17.0415 45.221L9.78832 47.2934C9.63828 47.3362 9.47951 47.3382 9.32846 47.299C9.17741 47.2599 9.03958 47.181 8.92925 47.0707C8.81893 46.9603 8.74012 46.8225 8.70099 46.6714C8.66187 46.5204 8.66386 46.3616 8.70674 46.2116L10.7789 38.9586C10.8116 38.844 10.8206 38.7239 10.8052 38.6056C10.7899 38.4874 10.7505 38.3735 10.6896 38.271C8.42282 34.452 7.48275 29.9906 8.01581 25.5817C8.54888 21.1728 10.5252 17.064 13.6368 13.8953C16.7484 10.7266 20.8206 8.67606 25.2191 8.06299C29.6176 7.44993 34.0954 8.30881 37.9549 10.5058C41.8144 12.7029 44.8389 16.1147 46.5573 20.2098C48.2756 24.3049 48.5914 28.8533 47.4553 33.1466C46.3192 37.4398 43.7951 41.2368 40.2761 43.946C36.7572 46.6552 32.441 48.1245 28 48.125ZM39.0493 32.0563L34.5738 29.4988C34.1689 29.2677 33.7098 29.1485 33.2436 29.1534C32.7774 29.1584 32.3209 29.2873 31.9209 29.527L28.9007 31.3391C27.0724 30.4128 25.5872 28.9275 24.6609 27.0992L26.4729 24.079C26.7126 23.679 26.8415 23.2226 26.8464 22.7564C26.8514 22.2902 26.7322 21.8311 26.5011 21.4262L23.9437 16.9506C23.7349 16.5862 23.4337 16.2833 23.0705 16.0726C22.7072 15.8618 22.2949 15.7505 21.8749 15.75C20.023 15.7505 18.2468 16.4845 16.9349 17.7915C15.6229 19.0986 14.8823 20.8721 14.8749 22.7239C14.8715 25.1391 15.3443 27.5313 16.2662 29.7637C17.1881 31.996 18.541 34.0247 20.2476 35.7337C21.9542 37.4428 23.9809 38.7986 26.2119 39.7237C28.443 40.6488 30.8345 41.1249 33.2497 41.125H33.276C35.1278 41.1176 36.9013 40.3769 38.2083 39.065C39.5153 37.7531 40.2494 35.9769 40.2499 34.125C40.2494 33.705 40.1382 33.2927 39.9274 32.9294C39.7166 32.5662 39.4137 32.265 39.0493 32.0563ZM33.2735 39.375H33.2498C31.0646 39.375 28.9008 38.9442 26.8823 38.1072C24.8637 37.2703 23.0299 36.0436 21.4859 34.4973C19.9418 32.9511 18.7177 31.1156 17.8836 29.0958C17.0495 27.0761 16.6218 24.9117 16.6249 22.7265C16.6309 21.3381 17.1867 20.0087 18.1707 19.0292C19.1546 18.0497 20.4865 17.4998 21.8749 17.5C21.9864 17.5001 22.0959 17.5297 22.1924 17.5856C22.2888 17.6416 22.3688 17.722 22.4243 17.8187L24.9817 22.2946C25.0587 22.4295 25.0984 22.5826 25.0968 22.7379C25.0951 22.8933 25.0522 23.0455 24.9723 23.1787L22.9184 26.6018C22.8458 26.7228 22.8035 26.8596 22.7952 27.0005C22.7869 27.1413 22.8128 27.2821 22.8707 27.4108C24.0127 29.9526 26.0474 31.9873 28.5892 33.1293C28.7179 33.1872 28.8587 33.2131 28.9996 33.2048C29.1405 33.1965 29.2773 33.1541 29.3983 33.0815L32.8211 31.0277C32.9545 30.9478 33.1066 30.9048 33.262 30.9031C33.4175 30.9014 33.5705 30.9411 33.7055 31.0181L38.1813 33.5758C38.278 33.6312 38.3584 33.7112 38.4143 33.8076C38.4703 33.904 38.4998 34.0135 38.4999 34.125C38.5001 35.5134 37.9502 36.8452 36.9707 37.8292C35.9912 38.8131 34.6618 39.3689 33.2735 39.375Z" fill="#108814"/>
</svg>
